<svg width="138" height="38" viewBox="0 0 138 38" fill="none" xmlns="http://www.w3.org/2000/svg">
<path d="M0.955125 9.648H3.77113V6.768H5.75513V9.648H8.57113V11.568H5.75513V14.464H3.77113V11.568H0.955125V9.648ZM10.9598 16L14.8958 7.536L15.6638 6.752L14.6078 6.912H10.1758V4.8H18.0318V5.424L13.1678 16H10.9598ZM22.7489 19.52C22.2155 19.008 21.7622 18.4427 21.3889 17.824C21.0262 17.216 20.7275 16.592 20.4929 15.952C20.2689 15.3013 20.1035 14.6507 19.9969 14C19.9009 13.3387 19.8529 12.7093 19.8529 12.112C19.8529 11.5253 19.9009 10.9067 19.9969 10.256C20.1035 9.60533 20.2742 8.95467 20.5089 8.304C20.7435 7.64267 21.0475 6.99733 21.4209 6.368C21.8049 5.73867 22.2689 5.152 22.8129 4.608L24.2529 5.584C23.8475 6.07467 23.5062 6.592 23.2289 7.136C22.9515 7.66933 22.7275 8.21333 22.5569 8.768C22.3969 9.32267 22.2795 9.88267 22.2049 10.448C22.1302 11.0133 22.0929 11.568 22.0929 12.112C22.0929 12.624 22.1355 13.1627 22.2209 13.728C22.3062 14.2933 22.4342 14.8587 22.6049 15.424C22.7862 15.9787 23.0155 16.5227 23.2929 17.056C23.5702 17.5893 23.9009 18.08 24.2849 18.528L22.7489 19.52ZM25.348 13.232C25.348 12.8587 25.4013 12.528 25.508 12.24C25.6147 11.9413 25.764 11.6747 25.956 11.44C26.148 11.2053 26.372 10.9973 26.628 10.816C26.884 10.624 27.1667 10.448 27.476 10.288C26.9 9.95733 26.452 9.57867 26.132 9.152C25.8227 8.72533 25.668 8.192 25.668 7.552C25.668 7.14667 25.748 6.76267 25.908 6.4C26.0787 6.03733 26.3187 5.72267 26.628 5.456C26.948 5.17867 27.332 4.96533 27.78 4.816C28.2387 4.656 28.756 4.576 29.332 4.576C29.8547 4.576 30.3293 4.64533 30.756 4.784C31.1827 4.912 31.5453 5.09867 31.844 5.344C32.1533 5.57867 32.388 5.86667 32.548 6.208C32.7187 6.53867 32.804 6.90133 32.804 7.296C32.804 7.92533 32.6547 8.45867 32.356 8.896C32.068 9.32267 31.62 9.71733 31.012 10.08C31.6947 10.4533 32.2173 10.8587 32.58 11.296C32.9427 11.7333 33.124 12.2987 33.124 12.992C33.124 13.472 33.028 13.9093 32.836 14.304C32.644 14.6987 32.372 15.04 32.02 15.328C31.6787 15.6053 31.2627 15.824 30.772 15.984C30.292 16.144 29.7587 16.224 29.172 16.224C28.596 16.224 28.068 16.1493 27.588 16C27.1187 15.8613 26.7187 15.6587 26.388 15.392C26.0573 15.1253 25.8013 14.8107 25.62 14.448C25.4387 14.0747 25.348 13.6693 25.348 13.232ZM30.98 13.008C30.98 12.7733 30.9107 12.56 30.772 12.368C30.644 12.176 30.4733 12 30.26 11.84C30.0573 11.68 29.828 11.5307 29.572 11.392C29.316 11.2533 29.06 11.1253 28.804 11.008C28.2707 11.2853 27.9027 11.5893 27.7 11.92C27.508 12.2507 27.412 12.5653 27.412 12.864C27.412 13.28 27.5667 13.632 27.876 13.92C28.196 14.208 28.644 14.352 29.22 14.352C29.7533 14.352 30.18 14.24 30.5 14.016C30.82 13.7813 30.98 13.4453 30.98 13.008ZM27.812 7.584C27.812 7.84 27.8653 8.064 27.972 8.256C28.0893 8.448 28.2387 8.61867 28.42 8.768C28.6013 8.90667 28.804 9.03467 29.028 9.152C29.2627 9.26933 29.5027 9.38133 29.748 9.488C30.42 8.95467 30.756 8.37333 30.756 7.744C30.756 7.31733 30.612 6.99733 30.324 6.784C30.036 6.56 29.6893 6.448 29.284 6.448C28.772 6.448 28.3987 6.56 28.164 6.784C27.9293 7.008 27.812 7.27467 27.812 7.584ZM42.7691 12.528C42.7691 13.0293 42.6731 13.504 42.4811 13.952C42.2891 14.3893 42.0171 14.7787 41.6651 15.12C41.3238 15.4613 40.9078 15.7333 40.4171 15.936C39.9371 16.128 39.3985 16.224 38.8011 16.224C38.2038 16.224 37.6545 16.1333 37.1531 15.952C36.6518 15.7707 36.2145 15.504 35.8411 15.152C35.4678 14.7893 35.1745 14.3467 34.9611 13.824C34.7585 13.2907 34.6571 12.672 34.6571 11.968C34.6571 10.9333 34.8225 9.98933 35.1531 9.136C35.4838 8.272 35.9265 7.52533 36.4811 6.896C37.0465 6.256 37.7025 5.73867 38.4491 5.344C39.1958 4.94933 39.9905 4.69333 40.8331 4.576L41.2971 6.32C40.7211 6.40533 40.1878 6.57067 39.6971 6.816C39.2171 7.05067 38.7851 7.33867 38.4011 7.68C38.0278 8.01067 37.7131 8.384 37.4571 8.8C37.2011 9.20533 37.0198 9.62133 36.9131 10.048C37.1585 9.78133 37.4571 9.552 37.8091 9.36C38.1611 9.15733 38.6198 9.056 39.1851 9.056C39.7185 9.056 40.2038 9.136 40.6411 9.296C41.0891 9.456 41.4678 9.68533 41.7771 9.984C42.0971 10.2827 42.3425 10.6453 42.5131 11.072C42.6838 11.4987 42.7691 11.984 42.7691 12.528ZM40.5931 12.624C40.5931 11.4933 39.9585 10.928 38.6891 10.928C38.2198 10.928 37.8251 11.024 37.5051 11.216C37.1851 11.3973 36.9611 11.616 36.8331 11.872C36.8118 11.9893 36.8011 12.08 36.8011 12.144C36.8011 12.1973 36.8011 12.2613 36.8011 12.336C36.8011 12.5813 36.8385 12.8267 36.9131 13.072C36.9985 13.3067 37.1211 13.52 37.2811 13.712C37.4411 13.904 37.6438 14.0587 37.8891 14.176C38.1345 14.2933 38.4225 14.352 38.7531 14.352C39.0198 14.352 39.2651 14.3093 39.4891 14.224C39.7131 14.128 39.9051 14 40.0651 13.84C40.2358 13.68 40.3638 13.4987 40.4491 13.296C40.5451 13.0827 40.5931 12.8587 40.5931 12.624ZM47.4223 14.352C47.7849 14.352 48.0996 14.3093 48.3663 14.224C48.6436 14.128 48.8729 14 49.0543 13.84C49.2356 13.68 49.3743 13.4987 49.4703 13.296C49.5663 13.0827 49.6143 12.864 49.6143 12.64C49.6143 12.064 49.4169 11.6373 49.0223 11.36C48.6383 11.0827 48.0143 10.944 47.1503 10.944H45.8863V9.76L47.9503 7.232L48.9583 6.496L47.5823 6.672H44.6863V4.8H51.3423V6L48.9423 8.944L48.1583 9.376V9.456L48.8943 9.36C49.2889 9.392 49.6623 9.48267 50.0143 9.632C50.3769 9.78133 50.6916 9.984 50.9583 10.24C51.2356 10.496 51.4543 10.816 51.6143 11.2C51.7743 11.5733 51.8542 12.0107 51.8542 12.512C51.8542 13.1413 51.7369 13.6907 51.5023 14.16C51.2783 14.6187 50.9689 15.0027 50.5743 15.312C50.1796 15.6213 49.7156 15.8507 49.1823 16C48.6489 16.1493 48.0729 16.224 47.4543 16.224C47.1983 16.224 46.9369 16.2133 46.6703 16.192C46.4036 16.1707 46.1423 16.1333 45.8863 16.08C45.6303 16.0373 45.3849 15.9893 45.1503 15.936C44.9263 15.872 44.7289 15.7973 44.5583 15.712L45.1663 13.856C45.4649 13.9947 45.8009 14.112 46.1743 14.208C46.5476 14.304 46.9636 14.352 47.4223 14.352ZM53.0674 18.528C53.4514 18.08 53.782 17.5893 54.0594 17.056C54.3367 16.5227 54.5607 15.9787 54.7314 15.424C54.9127 14.8587 55.046 14.2933 55.1314 13.728C55.2167 13.1627 55.2594 12.624 55.2594 12.112C55.2594 11.568 55.222 11.0133 55.1474 10.448C55.0727 9.88267 54.95 9.32267 54.7794 8.768C54.6194 8.21333 54.4007 7.66933 54.1234 7.136C53.846 6.592 53.5047 6.07467 53.0994 5.584L54.5394 4.608C55.0834 5.152 55.542 5.73867 55.9154 6.368C56.2994 6.99733 56.6087 7.64267 56.8434 8.304C57.078 8.95467 57.2434 9.60533 57.3394 10.256C57.446 10.9067 57.4994 11.5253 57.4994 12.112C57.4994 12.7093 57.446 13.3387 57.3394 14C57.2434 14.6507 57.078 15.3013 56.8434 15.952C56.6194 16.592 56.3207 17.216 55.9474 17.824C55.5847 18.4427 55.1367 19.008 54.6034 19.52L53.0674 18.528ZM63.4644 10.384C63.4644 8.47467 63.827 7.02933 64.5524 6.048C65.2884 5.06667 66.339 4.576 67.7044 4.576C69.1657 4.576 70.2377 5.06133 70.9204 6.032C71.6137 6.992 71.9604 8.44267 71.9604 10.384C71.9604 12.2827 71.5924 13.7333 70.8564 14.736C70.1204 15.728 69.0697 16.224 67.7044 16.224C66.979 16.224 66.3497 16.0907 65.8164 15.824C65.283 15.5467 64.8404 15.1573 64.4884 14.656C64.147 14.144 63.891 13.5307 63.7204 12.816C63.5497 12.0907 63.4644 11.28 63.4644 10.384ZM65.7684 10.384C65.7684 11.6107 65.9177 12.5813 66.2164 13.296C66.515 14 67.011 14.352 67.7044 14.352C68.4084 14.352 68.9097 14.032 69.2084 13.392C69.507 12.752 69.6564 11.7493 69.6564 10.384C69.6564 9.776 69.619 9.232 69.5444 8.752C69.4804 8.26133 69.3737 7.84533 69.2244 7.504C69.075 7.16267 68.8724 6.90133 68.6164 6.72C68.371 6.53867 68.067 6.448 67.7044 6.448C67.011 6.448 66.515 6.784 66.2164 7.456C65.9177 8.11733 65.7684 9.09333 65.7684 10.384ZM72.9175 10.384C72.9175 8.47467 73.2802 7.02933 74.0055 6.048C74.7415 5.06667 75.7922 4.576 77.1575 4.576C78.6188 4.576 79.6908 5.06133 80.3735 6.032C81.0668 6.992 81.4135 8.44267 81.4135 10.384C81.4135 12.2827 81.0455 13.7333 80.3095 14.736C79.5735 15.728 78.5228 16.224 77.1575 16.224C76.4322 16.224 75.8028 16.0907 75.2695 15.824C74.7362 15.5467 74.2935 15.1573 73.9415 14.656C73.6002 14.144 73.3442 13.5307 73.1735 12.816C73.0028 12.0907 72.9175 11.28 72.9175 10.384ZM75.2215 10.384C75.2215 11.6107 75.3708 12.5813 75.6695 13.296C75.9682 14 76.4642 14.352 77.1575 14.352C77.8615 14.352 78.3628 14.032 78.6615 13.392C78.9602 12.752 79.1095 11.7493 79.1095 10.384C79.1095 9.776 79.0722 9.232 78.9975 8.752C78.9335 8.26133 78.8268 7.84533 78.6775 7.504C78.5282 7.16267 78.3255 6.90133 78.0695 6.72C77.8242 6.53867 77.5202 6.448 77.1575 6.448C76.4642 6.448 75.9682 6.784 75.6695 7.456C75.3708 8.11733 75.2215 9.09333 75.2215 10.384ZM82.3706 10.384C82.3706 8.47467 82.7333 7.02933 83.4586 6.048C84.1946 5.06667 85.2453 4.576 86.6106 4.576C88.072 4.576 89.144 5.06133 89.8266 6.032C90.52 6.992 90.8666 8.44267 90.8666 10.384C90.8666 12.2827 90.4986 13.7333 89.7626 14.736C89.0266 15.728 87.976 16.224 86.6106 16.224C85.8853 16.224 85.256 16.0907 84.7226 15.824C84.1893 15.5467 83.7466 15.1573 83.3946 14.656C83.0533 14.144 82.7973 13.5307 82.6266 12.816C82.456 12.0907 82.3706 11.28 82.3706 10.384ZM84.6746 10.384C84.6746 11.6107 84.824 12.5813 85.1226 13.296C85.4213 14 85.9173 14.352 86.6106 14.352C87.3146 14.352 87.816 14.032 88.1146 13.392C88.4133 12.752 88.5626 11.7493 88.5626 10.384C88.5626 9.776 88.5253 9.232 88.4506 8.752C88.3866 8.26133 88.28 7.84533 88.1306 7.504C87.9813 7.16267 87.7786 6.90133 87.5226 6.72C87.2773 6.53867 86.9733 6.448 86.6106 6.448C85.9173 6.448 85.4213 6.784 85.1226 7.456C84.824 8.11733 84.6746 9.09333 84.6746 10.384ZM96.2456 10.384C96.2456 8.47467 96.6083 7.02933 97.3336 6.048C98.0696 5.06667 99.1203 4.576 100.486 4.576C101.947 4.576 103.019 5.06133 103.702 6.032C104.395 6.992 104.742 8.44267 104.742 10.384C104.742 12.2827 104.374 13.7333 103.638 14.736C102.902 15.728 101.851 16.224 100.486 16.224C99.7603 16.224 99.131 16.0907 98.5976 15.824C98.0643 15.5467 97.6216 15.1573 97.2696 14.656C96.9283 14.144 96.6723 13.5307 96.5016 12.816C96.331 12.0907 96.2456 11.28 96.2456 10.384ZM98.5496 10.384C98.5496 11.6107 98.699 12.5813 98.9976 13.296C99.2963 14 99.7923 14.352 100.486 14.352C101.19 14.352 101.691 14.032 101.99 13.392C102.288 12.752 102.438 11.7493 102.438 10.384C102.438 9.776 102.4 9.232 102.326 8.752C102.262 8.26133 102.155 7.84533 102.006 7.504C101.856 7.16267 101.654 6.90133 101.398 6.72C101.152 6.53867 100.848 6.448 100.486 6.448C99.7923 6.448 99.2963 6.784 98.9976 7.456C98.699 8.11733 98.5496 9.09333 98.5496 10.384ZM105.699 10.384C105.699 8.47467 106.061 7.02933 106.787 6.048C107.523 5.06667 108.573 4.576 109.939 4.576C111.4 4.576 112.472 5.06133 113.155 6.032C113.848 6.992 114.195 8.44267 114.195 10.384C114.195 12.2827 113.827 13.7333 113.091 14.736C112.355 15.728 111.304 16.224 109.939 16.224C109.213 16.224 108.584 16.0907 108.051 15.824C107.517 15.5467 107.075 15.1573 106.723 14.656C106.381 14.144 106.125 13.5307 105.955 12.816C105.784 12.0907 105.699 11.28 105.699 10.384ZM108.003 10.384C108.003 11.6107 108.152 12.5813 108.451 13.296C108.749 14 109.245 14.352 109.939 14.352C110.643 14.352 111.144 14.032 111.443 13.392C111.741 12.752 111.891 11.7493 111.891 10.384C111.891 9.776 111.853 9.232 111.779 8.752C111.715 8.26133 111.608 7.84533 111.459 7.504C111.309 7.16267 111.107 6.90133 110.851 6.72C110.605 6.53867 110.301 6.448 109.939 6.448C109.245 6.448 108.749 6.784 108.451 7.456C108.152 8.11733 108.003 9.09333 108.003 10.384ZM119.574 10.384C119.574 8.47467 119.936 7.02933 120.662 6.048C121.398 5.06667 122.448 4.576 123.814 4.576C125.275 4.576 126.347 5.06133 127.03 6.032C127.723 6.992 128.07 8.44267 128.07 10.384C128.07 12.2827 127.702 13.7333 126.966 14.736C126.23 15.728 125.179 16.224 123.814 16.224C123.088 16.224 122.459 16.0907 121.926 15.824C121.392 15.5467 120.95 15.1573 120.598 14.656C120.256 14.144 120 13.5307 119.83 12.816C119.659 12.0907 119.574 11.28 119.574 10.384ZM121.878 10.384C121.878 11.6107 122.027 12.5813 122.326 13.296C122.624 14 123.12 14.352 123.814 14.352C124.518 14.352 125.019 14.032 125.318 13.392C125.616 12.752 125.766 11.7493 125.766 10.384C125.766 9.776 125.728 9.232 125.654 8.752C125.59 8.26133 125.483 7.84533 125.334 7.504C125.184 7.16267 124.982 6.90133 124.726 6.72C124.48 6.53867 124.176 6.448 123.814 6.448C123.12 6.448 122.624 6.784 122.326 7.456C122.027 8.11733 121.878 9.09333 121.878 10.384ZM129.027 10.384C129.027 8.47467 129.39 7.02933 130.115 6.048C130.851 5.06667 131.902 4.576 133.267 4.576C134.728 4.576 135.8 5.06133 136.483 6.032C137.176 6.992 137.523 8.44267 137.523 10.384C137.523 12.2827 137.155 13.7333 136.419 14.736C135.683 15.728 134.632 16.224 133.267 16.224C132.542 16.224 131.912 16.0907 131.379 15.824C130.846 15.5467 130.403 15.1573 130.051 14.656C129.71 14.144 129.454 13.5307 129.283 12.816C129.112 12.0907 129.027 11.28 129.027 10.384ZM131.331 10.384C131.331 11.6107 131.48 12.5813 131.779 13.296C132.078 14 132.574 14.352 133.267 14.352C133.971 14.352 134.472 14.032 134.771 13.392C135.07 12.752 135.219 11.7493 135.219 10.384C135.219 9.776 135.182 9.232 135.107 8.752C135.043 8.26133 134.936 7.84533 134.787 7.504C134.638 7.16267 134.435 6.90133 134.179 6.72C133.934 6.53867 133.63 6.448 133.267 6.448C132.574 6.448 132.078 6.784 131.779 7.456C131.48 8.11733 131.331 9.09333 131.331 10.384Z" fill="#364844"/>
<path d="M37.5056 24.991C37.8696 24.913 38.264 24.861 38.6886 24.835C39.122 24.8003 39.5466 24.783 39.9626 24.783C40.4046 24.783 40.851 24.822 41.3016 24.9C41.761 24.978 42.177 25.121 42.5496 25.329C42.9223 25.537 43.2256 25.8273 43.4596 26.2C43.7023 26.564 43.8236 27.0363 43.8236 27.617C43.8236 28.163 43.7153 28.631 43.4986 29.021C43.282 29.4023 42.9916 29.7143 42.6276 29.957C42.2723 30.1997 41.8606 30.3773 41.3926 30.49C40.9333 30.6027 40.4566 30.659 39.9626 30.659C39.9106 30.659 39.8283 30.659 39.7156 30.659C39.6116 30.6503 39.499 30.646 39.3776 30.646C39.265 30.6373 39.1523 30.6287 39.0396 30.62C38.9356 30.6113 38.8576 30.6027 38.8056 30.594V34H37.5056V24.991ZM40.0016 25.901C39.7676 25.901 39.538 25.9053 39.3126 25.914C39.096 25.9227 38.927 25.9443 38.8056 25.979V29.476C38.849 29.4933 38.9183 29.5063 39.0136 29.515C39.1176 29.515 39.2216 29.5193 39.3256 29.528C39.4383 29.5367 39.5423 29.541 39.6376 29.541C39.7416 29.541 39.8196 29.541 39.8716 29.541C40.1836 29.541 40.4913 29.5193 40.7946 29.476C41.098 29.424 41.371 29.3287 41.6136 29.19C41.865 29.0513 42.0643 28.8563 42.2116 28.605C42.3676 28.3537 42.4456 28.0287 42.4456 27.63C42.4456 27.2833 42.372 26.9973 42.2246 26.772C42.0773 26.5467 41.8866 26.369 41.6526 26.239C41.4186 26.109 41.1543 26.0223 40.8596 25.979C40.5736 25.927 40.2876 25.901 40.0016 25.901ZM44.6443 30.594C44.6443 30.0307 44.7179 29.528 44.8653 29.086C45.0126 28.6353 45.2293 28.254 45.5153 27.942C45.8013 27.63 46.1479 27.3917 46.5553 27.227C46.9713 27.0623 47.4436 26.98 47.9723 26.98C48.5269 26.98 49.0123 27.071 49.4283 27.253C49.8443 27.435 50.1909 27.6907 50.4683 28.02C50.7456 28.3407 50.9493 28.722 51.0793 29.164C51.2179 29.5973 51.2873 30.074 51.2873 30.594C51.2873 31.1487 51.2093 31.647 51.0533 32.089C50.9059 32.531 50.6893 32.908 50.4033 33.22C50.1259 33.532 49.7793 33.7703 49.3633 33.935C48.9559 34.0997 48.4923 34.182 47.9723 34.182C47.4003 34.182 46.9063 34.091 46.4903 33.909C46.0743 33.727 45.7276 33.4757 45.4503 33.155C45.1816 32.8343 44.9779 32.4573 44.8393 32.024C44.7093 31.582 44.6443 31.1053 44.6443 30.594ZM45.9183 30.594C45.9183 30.9147 45.9529 31.231 46.0223 31.543C46.1003 31.8463 46.2216 32.1193 46.3863 32.362C46.5509 32.6047 46.7633 32.7997 47.0233 32.947C47.2833 33.0943 47.6039 33.168 47.9853 33.168C49.3373 33.168 50.0133 32.31 50.0133 30.594C50.0133 30.256 49.9743 29.931 49.8963 29.619C49.8269 29.307 49.7099 29.034 49.5453 28.8C49.3893 28.5573 49.1813 28.3623 48.9213 28.215C48.6613 28.0677 48.3493 27.994 47.9853 27.994C47.3093 27.994 46.7936 28.2107 46.4383 28.644C46.0916 29.0687 45.9183 29.7187 45.9183 30.594ZM58.3574 33.532C58.0541 33.7487 57.6988 33.909 57.2914 34.013C56.8841 34.1257 56.4551 34.182 56.0044 34.182C55.4324 34.182 54.9428 34.0953 54.5354 33.922C54.1368 33.7487 53.8118 33.506 53.5604 33.194C53.3091 32.882 53.1271 32.505 53.0144 32.063C52.9018 31.621 52.8454 31.1313 52.8454 30.594C52.8454 29.4413 53.1228 28.553 53.6774 27.929C54.2408 27.2963 55.0468 26.98 56.0954 26.98C56.5548 26.98 56.9534 27.0233 57.2914 27.11C57.6294 27.188 57.9328 27.2877 58.2014 27.409L57.8894 28.384C57.6554 28.2627 57.3998 28.1673 57.1224 28.098C56.8538 28.0287 56.5591 27.994 56.2384 27.994C54.8258 27.994 54.1194 28.8607 54.1194 30.594C54.1194 30.9233 54.1584 31.244 54.2364 31.556C54.3144 31.8593 54.4401 32.1323 54.6134 32.375C54.7868 32.609 55.0121 32.7997 55.2894 32.947C55.5754 33.0943 55.9221 33.168 56.3294 33.168C56.6934 33.168 57.0098 33.1203 57.2784 33.025C57.5558 32.921 57.7854 32.7997 57.9674 32.661L58.3574 33.532ZM64.6712 28.189H62.3052V34H61.1092V28.189H58.7432V27.175H64.6712V28.189ZM65.2488 30.594C65.2488 30.0307 65.3224 29.528 65.4698 29.086C65.6171 28.6353 65.8338 28.254 66.1198 27.942C66.4058 27.63 66.7524 27.3917 67.1598 27.227C67.5758 27.0623 68.0481 26.98 68.5768 26.98C69.1314 26.98 69.6168 27.071 70.0328 27.253C70.4488 27.435 70.7954 27.6907 71.0728 28.02C71.3501 28.3407 71.5538 28.722 71.6838 29.164C71.8224 29.5973 71.8918 30.074 71.8918 30.594C71.8918 31.1487 71.8138 31.647 71.6578 32.089C71.5104 32.531 71.2938 32.908 71.0078 33.22C70.7304 33.532 70.3838 33.7703 69.9678 33.935C69.5604 34.0997 69.0968 34.182 68.5768 34.182C68.0048 34.182 67.5108 34.091 67.0948 33.909C66.6788 33.727 66.3321 33.4757 66.0548 33.155C65.7861 32.8343 65.5824 32.4573 65.4438 32.024C65.3138 31.582 65.2488 31.1053 65.2488 30.594ZM66.5228 30.594C66.5228 30.9147 66.5574 31.231 66.6268 31.543C66.7048 31.8463 66.8261 32.1193 66.9908 32.362C67.1554 32.6047 67.3678 32.7997 67.6278 32.947C67.8878 33.0943 68.2084 33.168 68.5898 33.168C69.9418 33.168 70.6178 32.31 70.6178 30.594C70.6178 30.256 70.5788 29.931 70.5008 29.619C70.4314 29.307 70.3144 29.034 70.1498 28.8C69.9938 28.5573 69.7858 28.3623 69.5258 28.215C69.2658 28.0677 68.9538 27.994 68.5898 27.994C67.9138 27.994 67.3981 28.2107 67.0428 28.644C66.6961 29.0687 66.5228 29.7187 66.5228 30.594ZM73.8139 27.175L74.3079 27.149C74.5853 27.1317 74.8886 27.1143 75.2179 27.097C75.5473 27.071 75.9286 27.058 76.3619 27.058C77.3673 27.058 78.0866 27.201 78.5199 27.487C78.9619 27.7643 79.1829 28.1803 79.1829 28.735C79.1829 29.0383 79.0746 29.346 78.8579 29.658C78.6499 29.9613 78.3163 30.1823 77.8569 30.321V30.464C78.4289 30.5767 78.8363 30.7673 79.0789 31.036C79.3303 31.3047 79.4559 31.66 79.4559 32.102C79.4559 32.7867 79.1743 33.2937 78.6109 33.623C78.0476 33.9437 77.1983 34.104 76.0629 34.104C75.6816 34.104 75.3219 34.091 74.9839 34.065C74.6459 34.0477 74.3166 34.026 73.9959 34C73.9613 34 73.9309 34 73.9049 34C73.8789 33.9913 73.8486 33.987 73.8139 33.987V27.175ZM75.0099 33.064C75.2006 33.09 75.3869 33.1117 75.5689 33.129C75.7509 33.1377 75.9763 33.142 76.2449 33.142C76.9296 33.142 77.4236 33.0553 77.7269 32.882C78.0303 32.7 78.1819 32.4053 78.1819 31.998C78.1819 31.8333 78.1516 31.6817 78.0909 31.543C78.0303 31.4043 77.9306 31.2873 77.7919 31.192C77.6533 31.0967 77.4626 31.023 77.2199 30.971C76.9859 30.9103 76.6956 30.88 76.3489 30.88H75.0099V33.064ZM76.4919 30.061C76.6826 30.061 76.8646 30.035 77.0379 29.983C77.2113 29.931 77.3673 29.8573 77.5059 29.762C77.6446 29.6667 77.7529 29.5583 77.8309 29.437C77.9176 29.307 77.9609 29.1683 77.9609 29.021C77.9609 28.657 77.8353 28.4057 77.5839 28.267C77.3413 28.1197 76.9209 28.046 76.3229 28.046C76.1236 28.046 75.9199 28.0547 75.7119 28.072C75.5126 28.0807 75.2786 28.0893 75.0099 28.098V30.061H76.4919ZM81.0683 29.684H84.5263V30.802H81.0683V29.684ZM91.1245 31.023H87.6925V34H86.4965V27.175H87.6925V29.957H91.1245V27.175H92.3205V34H91.1245V31.023ZM94.5308 27.604C95.3108 27.2313 96.2772 27.045 97.4298 27.045C97.9498 27.045 98.3658 27.1143 98.6778 27.253C98.9985 27.383 99.2455 27.552 99.4188 27.76C99.5922 27.968 99.7048 28.202 99.7568 28.462C99.8175 28.7133 99.8478 28.9647 99.8478 29.216C99.8478 29.6927 99.8305 30.1737 99.7958 30.659C99.7612 31.1357 99.7438 31.6557 99.7438 32.219C99.7438 32.5483 99.7568 32.869 99.7828 33.181C99.8175 33.4843 99.8695 33.766 99.9388 34.026H99.0678L98.7428 32.986H98.6128C98.5175 33.116 98.4005 33.2503 98.2618 33.389C98.1232 33.519 97.9585 33.636 97.7678 33.74C97.5772 33.844 97.3562 33.9307 97.1048 34C96.8622 34.0693 96.5805 34.104 96.2598 34.104C95.9392 34.104 95.6445 34.0607 95.3758 33.974C95.1072 33.8787 94.8732 33.7487 94.6738 33.584C94.4832 33.4193 94.3315 33.22 94.2188 32.986C94.1062 32.7433 94.0498 32.4747 94.0498 32.18C94.0498 31.79 94.1322 31.452 94.2968 31.166C94.4702 30.88 94.6912 30.646 94.9598 30.464C95.2285 30.282 95.5318 30.1477 95.8698 30.061C96.2165 29.9743 96.5588 29.931 96.8968 29.931C97.1655 29.931 97.3908 29.9353 97.5728 29.944C97.7635 29.9527 97.9195 29.9657 98.0408 29.983C98.1708 29.9917 98.2792 30.0047 98.3658 30.022C98.4525 30.0307 98.5305 30.0393 98.5998 30.048C98.6172 29.918 98.6302 29.8053 98.6388 29.71C98.6475 29.6147 98.6518 29.4933 98.6518 29.346C98.6518 29.1033 98.6258 28.8997 98.5738 28.735C98.5218 28.5703 98.4352 28.4403 98.3138 28.345C98.2012 28.241 98.0452 28.1673 97.8458 28.124C97.6465 28.0807 97.4038 28.059 97.1178 28.059C96.9532 28.059 96.7712 28.072 96.5718 28.098C96.3725 28.124 96.1732 28.163 95.9738 28.215C95.7745 28.2583 95.5752 28.3147 95.3758 28.384C95.1852 28.4533 95.0118 28.527 94.8558 28.605L94.5308 27.604ZM98.5998 30.906C98.5305 30.8973 98.4568 30.8843 98.3788 30.867C98.3008 30.8497 98.2012 30.8367 98.0798 30.828C97.9672 30.8193 97.8285 30.8107 97.6638 30.802C97.5078 30.7933 97.3128 30.789 97.0788 30.789C96.5415 30.789 96.1125 30.8843 95.7918 31.075C95.4798 31.2657 95.3238 31.5907 95.3238 32.05C95.3238 32.3967 95.4452 32.6567 95.6878 32.83C95.9392 33.0033 96.2598 33.09 96.6498 33.09C96.9358 33.09 97.1872 33.0553 97.4038 32.986C97.6292 32.908 97.8198 32.817 97.9758 32.713C98.1405 32.6003 98.2705 32.479 98.3658 32.349C98.4698 32.2103 98.5478 32.076 98.5998 31.946V30.906ZM101.863 29.684H105.321V30.802H101.863V29.684ZM114.717 35.664H113.82L113.599 34H106.683L106.475 35.664H105.578V32.856H106.592C106.67 32.7607 106.787 32.544 106.943 32.206C107.107 31.8593 107.268 31.3697 107.424 30.737C107.588 30.0957 107.727 29.294 107.84 28.332C107.952 27.37 108.004 26.226 107.996 24.9H113.417V32.856H114.717V35.664ZM112.117 32.856V26.044H109.192C109.157 26.9627 109.101 27.786 109.023 28.514C108.953 29.2333 108.862 29.8703 108.75 30.425C108.646 30.9797 108.524 31.4563 108.386 31.855C108.256 32.2537 108.117 32.5873 107.97 32.856H112.117ZM115.56 30.594C115.56 30.0307 115.634 29.528 115.781 29.086C115.929 28.6353 116.145 28.254 116.431 27.942C116.717 27.63 117.064 27.3917 117.471 27.227C117.887 27.0623 118.36 26.98 118.888 26.98C119.443 26.98 119.928 27.071 120.344 27.253C120.76 27.435 121.107 27.6907 121.384 28.02C121.662 28.3407 121.865 28.722 121.995 29.164C122.134 29.5973 122.203 30.074 122.203 30.594C122.203 31.1487 122.125 31.647 121.969 32.089C121.822 32.531 121.605 32.908 121.319 33.22C121.042 33.532 120.695 33.7703 120.279 33.935C119.872 34.0997 119.408 34.182 118.888 34.182C118.316 34.182 117.822 34.091 117.406 33.909C116.99 33.727 116.644 33.4757 116.366 33.155C116.098 32.8343 115.894 32.4573 115.755 32.024C115.625 31.582 115.56 31.1053 115.56 30.594ZM116.834 30.594C116.834 30.9147 116.869 31.231 116.938 31.543C117.016 31.8463 117.138 32.1193 117.302 32.362C117.467 32.6047 117.679 32.7997 117.939 32.947C118.199 33.0943 118.52 33.168 118.901 33.168C120.253 33.168 120.929 32.31 120.929 30.594C120.929 30.256 120.89 29.931 120.812 29.619C120.743 29.307 120.626 29.034 120.461 28.8C120.305 28.5573 120.097 28.3623 119.837 28.215C119.577 28.0677 119.265 27.994 118.901 27.994C118.225 27.994 117.71 28.2107 117.354 28.644C117.008 29.0687 116.834 29.7187 116.834 30.594ZM128.753 31.023H125.321V34H124.125V27.175H125.321V29.957H128.753V27.175H129.949V34H128.753V31.023ZM134.357 31.491L134.76 32.804H134.929L135.254 31.478L136.671 27.175H137.893L135.657 33.35C135.492 33.7747 135.323 34.1863 135.15 34.585C134.985 34.9837 134.799 35.3347 134.591 35.638C134.391 35.95 134.166 36.197 133.915 36.379C133.672 36.5697 133.39 36.665 133.07 36.665C132.723 36.665 132.428 36.626 132.186 36.548L132.381 35.534C132.511 35.5773 132.641 35.599 132.771 35.599C132.944 35.599 133.1 35.5773 133.239 35.534C133.386 35.4907 133.52 35.4127 133.642 35.3C133.763 35.1873 133.871 35.027 133.967 34.819C134.071 34.6197 134.166 34.3597 134.253 34.039L131.198 27.175H132.615L134.357 31.491Z" fill="#364844"/>
</svg>
